<svg xmlns="http://www.w3.org/2000/svg" width="2400" height="3100" viewBox="0 0 2400 3100">
  <defs>
    <linearGradient id="bgGrad" x1="0" y1="0" x2="1" y2="1">
      <stop offset="0%" stop-color="#121212"/>
      <stop offset="100%" stop-color="#0f172a"/>
    </linearGradient>
    <linearGradient id="panelGrad" x1="0" y1="0" x2="0" y2="1">
      <stop offset="0%" stop-color="#1d2430"/>
      <stop offset="100%" stop-color="#121722"/>
    </linearGradient>
    <linearGradient id="blueGrad" x1="0" y1="0" x2="1" y2="1">
      <stop offset="0%" stop-color="#2d7cff"/>
      <stop offset="100%" stop-color="#1a5fd4"/>
    </linearGradient>
    <linearGradient id="greenGrad" x1="0" y1="0" x2="1" y2="1">
      <stop offset="0%" stop-color="#16a085"/>
      <stop offset="100%" stop-color="#0f766e"/>
    </linearGradient>
    <linearGradient id="orangeGrad" x1="0" y1="0" x2="1" y2="1">
      <stop offset="0%" stop-color="#f59e0b"/>
      <stop offset="100%" stop-color="#b45309"/>
    </linearGradient>
    <filter id="shadow" x="-20%" y="-20%" width="140%" height="140%">
      <feDropShadow dx="0" dy="10" stdDeviation="16" flood-color="#000000" flood-opacity="0.35"/>
    </filter>
    <filter id="softShadow" x="-20%" y="-20%" width="140%" height="140%">
      <feDropShadow dx="0" dy="6" stdDeviation="10" flood-color="#000000" flood-opacity="0.22"/>
    </filter>
    <pattern id="grid" width="32" height="32" patternUnits="userSpaceOnUse">
      <path d="M 32 0 L 0 0 0 32" fill="none" stroke="#ffffff" stroke-opacity="0.04" stroke-width="1"/>
    </pattern>
    <marker id="arrow" markerWidth="12" markerHeight="12" refX="9" refY="6" orient="auto">
      <path d="M0,0 L12,6 L0,12 z" fill="#8bb3ff"/>
    </marker>
    <style>
      .bg { fill: url(#bgGrad); }
      .grid { fill: url(#grid); }
      .title { font: 700 42px 'Inter', 'Segoe UI', Arial, sans-serif; fill: #f5f7fb; letter-spacing: 0.2px; }
      .subtitle { font: 400 18px 'Inter', 'Segoe UI', Arial, sans-serif; fill: #9aa8c3; }
      .label { font: 700 14px 'Inter', 'Segoe UI', Arial, sans-serif; fill: #dbe7ff; letter-spacing: .9px; }
      .small { font: 500 12px 'Inter', 'Segoe UI', Arial, sans-serif; fill: #93a4c8; }
      .tiny { font: 500 10px 'Inter', 'Segoe UI', Arial, sans-serif; fill: #7789ad; }
      .screen { fill: url(#panelGrad); stroke: #2a3550; stroke-width: 1.2; rx: 24; filter: url(#shadow); }
      .screenTitle { font: 700 18px 'Inter', 'Segoe UI', Arial, sans-serif; fill: #ffffff; }
      .screenSub { font: 500 11px 'Inter', 'Segoe UI', Arial, sans-serif; fill: #a2b1cf; }
      .chip { fill: rgba(255,255,255,.06); stroke: #31415f; stroke-width: 1; rx: 999; }
      .chipText { font: 600 10px 'Inter', 'Segoe UI', Arial, sans-serif; fill: #dbe7ff; }
      .surface { fill: #17202e; stroke: #304060; stroke-width: 1; rx: 14; }
      .surface2 { fill: #1b2636; stroke: #32435f; stroke-width: 1; rx: 12; }
      .mutedStroke { stroke: #334562; stroke-width: 1; }
      .mutedStroke2 { stroke: #42577a; stroke-width: 1; }
      .textDark { font: 600 10px 'Inter', 'Segoe UI', Arial, sans-serif; fill: #e6eefc; }
      .textMuted { font: 500 9px 'Inter', 'Segoe UI', Arial, sans-serif; fill: #9db0d1; }
      .button { fill: url(#blueGrad); rx: 12; }
      .buttonText { font: 700 10px 'Inter', 'Segoe UI', Arial, sans-serif; fill: #ffffff; }
      .accentBlue { fill: #2d7cff; }
      .accentGreen { fill: #18c29c; }
      .accentOrange { fill: #f59e0b; }
      .accentRed { fill: #ef4444; }
      .line { stroke: #8bb3ff; stroke-width: 3; fill: none; marker-end: url(#arrow); opacity: .95; }
      .lineSoft { stroke: #516b93; stroke-width: 2; fill: none; marker-end: url(#arrow); opacity: .65; }
      .dash { stroke-dasharray: 6 6; }
    </style>
  </defs>
  <rect class="bg" x="0" y="0" width="2400" height="3100"/>
  <rect class="grid" x="0" y="0" width="2400" height="3100"/>


  <text x="120" y="90" class="title">DriveEase — High-Fidelity Wireframe</text>
  <text x="120" y="122" class="subtitle">Rental mobil web prototype berdasarkan blueprint: login → beranda → layanan → detail → checkout → tracking → profil</text>

  <rect x="1880" y="54" width="360" height="72" rx="18" class="surface2" filter="url(#softShadow)"/>
  <text x="1910" y="82" class="label">DESIGN INTENT</text>
  <text x="1910" y="104" class="small">Clean booking flow, strong hierarchy,</text>
  <text x="1910" y="122" class="small">mobile-safe, conversion-focused.</text>


    <g transform="translate(120,170)">
      <rect class="screen" x="0" y="0" width="680" height="500" rx="24"/>
      <rect x="18" y="18" width="644" height="32" rx="14" fill="#101621" stroke="#2f3e59"/>
      <circle cx="36" cy="34" r="6" fill="#2d7cff" opacity=".95"/>
      <text x="54" y="38" class="screenTitle">login.html — Auth Gate</text>
      <text x="18" y="70" class="screenSub">Register / Login / Theme / State</text>
    </g>
    

<g transform="translate(120,170)">
  <rect x="18" y="108" width="300" height="356" rx="18" fill="#141c28" stroke="#344763"/>
  <rect x="330" y="108" width="332" height="356" rx="18" fill="url(#blueGrad)" opacity=".92"/>
  <text x="44" y="148" class="label">DRIVEEASE</text>
  <text x="44" y="182" class="screenTitle">Masuk ke akun</text>
  <text x="44" y="204" class="screenSub">Akses wishlist, booking, dan tracking.</text>
  <rect x="44" y="228" width="248" height="34" rx="10" class="surface"/>
  <rect x="44" y="272" width="248" height="34" rx="10" class="surface"/>
  <rect x="44" y="316" width="120" height="16" rx="8" fill="#223149"/>
  <rect x="44" y="344" width="248" height="38" rx="12" class="button"/>
  <rect x="44" y="394" width="248" height="1" fill="#33445f"/>
  <rect x="44" y="410" width="248" height="28" rx="10" fill="#1a2434" stroke="#31415f"/>
  <text x="114" y="251" class="textMuted">Email</text>
  <text x="114" y="295" class="textMuted">Password</text>
  <text x="78" y="326" class="textMuted">Remember me</text>
  <text x="131" y="369" class="buttonText">Masuk</text>
  <text x="94" y="429" class="textMuted">Google SSO placeholder</text>

  <text x="352" y="150" class="label">BENEFITS</text>
  <text x="352" y="184" class="screenTitle">Jelajah tanpa ribet</text>
  <text x="352" y="210" class="screenSub">Visual hero + trust badges + auth state.</text>
  <rect x="352" y="238" width="260" height="18" rx="9" fill="rgba(255,255,255,.18)"/>
  <rect x="352" y="266" width="220" height="18" rx="9" fill="rgba(255,255,255,.13)"/>
  <rect x="352" y="294" width="245" height="18" rx="9" fill="rgba(255,255,255,.09)"/>
  <rect x="352" y="335" width="260" height="84" rx="18" fill="rgba(255,255,255,.14)" stroke="rgba(255,255,255,.24)"/>
  <circle cx="405" cy="376" r="25" fill="rgba(255,255,255,.2)"/>
  <circle cx="470" cy="368" r="12" fill="rgba(255,255,255,.32)"/>
  <circle cx="507" cy="374" r="18" fill="rgba(255,255,255,.22)"/>
  <rect x="352" y="434" width="160" height="18" rx="9" fill="rgba(255,255,255,.18)"/>
  <rect x="520" y="434" width="92" height="18" rx="9" fill="rgba(255,255,255,.22)"/>
</g>


    <g transform="translate(850,170)">
      <rect class="screen" x="0" y="0" width="680" height="500" rx="24"/>
      <rect x="18" y="18" width="644" height="32" rx="14" fill="#101621" stroke="#2f3e59"/>
      <circle cx="36" cy="34" r="6" fill="#2d7cff" opacity=".95"/>
      <text x="54" y="38" class="screenTitle">index.html — Beranda</text>
      <text x="18" y="70" class="screenSub">Hero + Search + Stats + Featured cars</text>
    </g>
    

<g transform="translate(850,170)">
  <rect x="18" y="108" width="644" height="40" rx="16" fill="#131b26" stroke="#30415d"/>
  <rect x="34" y="120" width="96" height="14" rx="7" fill="#2d7cff"/>
  <rect x="146" y="120" width="54" height="12" rx="6" fill="#26354d"/>
  <rect x="212" y="120" width="54" height="12" rx="6" fill="#26354d"/>
  <rect x="506" y="118" width="160" height="16" rx="8" fill="#233149"/>
  <text x="44" y="188" class="label">HERO</text>
  <rect x="34" y="198" width="330" height="42" rx="12" fill="#1a2434" stroke="#32435f"/>
  <rect x="34" y="250" width="300" height="18" rx="9" fill="#1b2740"/>
  <rect x="34" y="278" width="230" height="18" rx="9" fill="#182234"/>
  <rect x="390" y="180" width="250" height="170" rx="22" fill="#173b7a" stroke="#2d7cff"/>
  <circle cx="464" cy="251" r="45" fill="rgba(255,255,255,.14)"/>
  <circle cx="538" cy="232" r="22" fill="rgba(255,255,255,.18)"/>
  <circle cx="561" cy="269" r="16" fill="rgba(255,255,255,.22)"/>
  <text x="34" y="352" class="label">SEARCH WIDGET</text>
  <rect x="34" y="364" width="606" height="74" rx="18" fill="#182233" stroke="#365076"/>
  <rect x="48" y="380" width="160" height="18" rx="9" fill="#253654"/>
  <rect x="220" y="380" width="140" height="18" rx="9" fill="#253654"/>
  <rect x="372" y="380" width="140" height="18" rx="9" fill="#253654"/>
  <rect x="524" y="372" width="102" height="34" rx="12" fill="url(#blueGrad)"/>
  <text x="552" y="394" class="buttonText">Cari</text>
  <rect x="34" y="456" width="606" height="50" rx="16" fill="#131b26" stroke="#30415d"/>
  <rect x="48" y="470" width="70" height="20" rx="10" fill="#233149"/>
  <rect x="128" y="470" width="70" height="20" rx="10" fill="#233149"/>
  <rect x="208" y="470" width="70" height="20" rx="10" fill="#233149"/>
  <rect x="288" y="470" width="70" height="20" rx="10" fill="#233149"/>
  <rect x="368" y="470" width="70" height="20" rx="10" fill="#233149"/>
  <rect x="448" y="470" width="70" height="20" rx="10" fill="#233149"/>
  <rect x="528" y="470" width="86" height="20" rx="10" fill="#233149"/>
</g>


    <g transform="translate(1550,170)">
      <rect class="screen" x="0" y="0" width="730" height="500" rx="24"/>
      <rect x="18" y="18" width="694" height="32" rx="14" fill="#101621" stroke="#2f3e59"/>
      <circle cx="36" cy="34" r="6" fill="#18c29c" opacity=".95"/>
      <text x="54" y="38" class="screenTitle">layanan.html — Paket &amp; Layanan</text>
      <text x="18" y="70" class="screenSub">Filter + product grid + load more</text>
    </g>
    

<g transform="translate(1550,170)">
  <rect x="18" y="108" width="694" height="54" rx="16" fill="#131b26" stroke="#30415d"/>
  <rect x="34" y="122" width="90" height="16" rx="8" fill="#233149"/>
  <rect x="132" y="122" width="80" height="16" rx="8" fill="#233149"/>
  <rect x="220" y="122" width="94" height="16" rx="8" fill="#233149"/>
  <rect x="324" y="122" width="110" height="16" rx="8" fill="#233149"/>
  <rect x="442" y="122" width="96" height="16" rx="8" fill="#233149"/>
  <rect x="548" y="116" width="144" height="28" rx="10" fill="#182233" stroke="#365076"/>
  <text x="34" y="188" class="label">PRODUCT GRID</text>
  <rect x="34" y="204" width="210" height="126" rx="18" fill="#17202e" stroke="#31425f"/>
  <rect x="254" y="204" width="210" height="126" rx="18" fill="#17202e" stroke="#31425f"/>
  <rect x="474" y="204" width="210" height="126" rx="18" fill="#17202e" stroke="#31425f"/>
  <rect x="48" y="220" width="182" height="60" rx="14" fill="#24324a"/>
  <rect x="268" y="220" width="182" height="60" rx="14" fill="#24324a"/>
  <rect x="488" y="220" width="182" height="60" rx="14" fill="#24324a"/>
  <rect x="48" y="292" width="90" height="12" rx="6" fill="#253654"/>
  <rect x="268" y="292" width="90" height="12" rx="6" fill="#253654"/>
  <rect x="488" y="292" width="90" height="12" rx="6" fill="#253654"/>
  <rect x="34" y="350" width="650" height="88" rx="20" fill="#141c28" stroke="#31415f"/>
  <rect x="50" y="368" width="120" height="16" rx="8" fill="#1f2c43"/>
  <rect x="50" y="392" width="180" height="12" rx="6" fill="#233149"/>
  <rect x="500" y="374" width="166" height="34" rx="12" fill="url(#greenGrad)"/>
  <text x="544" y="396" class="buttonText">Load more</text>
</g>

<path d="M 800 420 C 825.0 420, 825.0 420, 850 420" class="line"/>
<path d="M 1530 420 C 1540.0 420, 1540.0 420, 1550 420" class="line"/>

    <g transform="translate(120,780)">
      <rect class="screen" x="0" y="0" width="760" height="560" rx="24"/>
      <rect x="18" y="18" width="724" height="32" rx="14" fill="#101621" stroke="#2f3e59"/>
      <circle cx="36" cy="34" r="6" fill="#f59e0b" opacity=".95"/>
      <text x="54" y="38" class="screenTitle">detail.html — Detail Paket</text>
      <text x="18" y="70" class="screenSub">Gallery + tabs + booking calculator</text>
    </g>
    

<g transform="translate(120,780)">
  <rect x="18" y="108" width="450" height="320" rx="20" fill="#141c28" stroke="#31415f"/>
  <rect x="34" y="124" width="418" height="214" rx="18" fill="#24324a"/>
  <rect x="34" y="350" width="96" height="52" rx="12" fill="#253654"/>
  <rect x="142" y="350" width="96" height="52" rx="12" fill="#253654"/>
  <rect x="250" y="350" width="96" height="52" rx="12" fill="#253654"/>
  <rect x="358" y="350" width="94" height="52" rx="12" fill="#253654"/>
  <text x="492" y="140" class="label">BOOKING SIDEBAR</text>
  <rect x="492" y="154" width="230" height="56" rx="16" fill="#17202e" stroke="#31415f"/>
  <rect x="492" y="220" width="230" height="110" rx="16" fill="#17202e" stroke="#31415f"/>
  <rect x="508" y="236" width="196" height="16" rx="8" fill="#233149"/>
  <rect x="508" y="262" width="160" height="16" rx="8" fill="#233149"/>
  <rect x="508" y="288" width="180" height="16" rx="8" fill="#233149"/>
  <rect x="492" y="342" width="230" height="64" rx="18" fill="url(#orangeGrad)"/>
  <text x="548" y="379" class="buttonText">Pesan Sekarang</text>
  <rect x="18" y="442" width="704" height="88" rx="18" fill="#141c28" stroke="#31415f"/>
  <rect x="34" y="458" width="160" height="16" rx="8" fill="#223149"/>
  <rect x="34" y="486" width="630" height="14" rx="7" fill="#24324a"/>
</g>


    <g transform="translate(980,780)">
      <rect class="screen" x="0" y="0" width="760" height="560" rx="24"/>
      <rect x="18" y="18" width="724" height="32" rx="14" fill="#101621" stroke="#2f3e59"/>
      <circle cx="36" cy="34" r="6" fill="#f59e0b" opacity=".95"/>
      <text x="54" y="38" class="screenTitle">checkout.html — Pemesanan</text>
      <text x="18" y="70" class="screenSub">Multi-step form + payment simulation</text>
    </g>
    

<g transform="translate(980,780)">
  <rect x="18" y="108" width="724" height="44" rx="16" fill="#131b26" stroke="#30415d"/>
  <rect x="34" y="121" width="118" height="18" rx="9" fill="#2d7cff"/>
  <rect x="162" y="121" width="118" height="18" rx="9" fill="#233149"/>
  <rect x="290" y="121" width="118" height="18" rx="9" fill="#233149"/>
  <rect x="418" y="121" width="118" height="18" rx="9" fill="#233149"/>
  <rect x="34" y="180" width="440" height="350" rx="20" fill="#141c28" stroke="#31415f"/>
  <rect x="50" y="200" width="150" height="16" rx="8" fill="#233149"/>
  <rect x="50" y="230" width="412" height="72" rx="14" fill="#17202e" stroke="#31415f"/>
  <rect x="50" y="314" width="188" height="38" rx="12" fill="#1b2636" stroke="#31415f"/>
  <rect x="250" y="314" width="212" height="38" rx="12" fill="#1b2636" stroke="#31415f"/>
  <rect x="50" y="364" width="412" height="68" rx="14" fill="#17202e" stroke="#31415f"/>
  <rect x="50" y="444" width="412" height="70" rx="14" fill="#17202e" stroke="#31415f"/>
  <rect x="494" y="180" width="248" height="260" rx="20" fill="#17202e" stroke="#31415f"/>
  <rect x="510" y="198" width="214" height="16" rx="8" fill="#233149"/>
  <rect x="510" y="226" width="180" height="12" rx="6" fill="#253654"/>
  <rect x="510" y="248" width="160" height="12" rx="6" fill="#253654"/>
  <rect x="510" y="270" width="190" height="12" rx="6" fill="#253654"/>
  <rect x="510" y="324" width="214" height="44" rx="14" fill="url(#orangeGrad)"/>
  <text x="552" y="351" class="buttonText">Bayar Sekarang</text>
</g>


    <g transform="translate(120,1420)">
      <rect class="screen" x="0" y="0" width="760" height="560" rx="24"/>
      <rect x="18" y="18" width="724" height="32" rx="14" fill="#101621" stroke="#2f3e59"/>
      <circle cx="36" cy="34" r="6" fill="#18c29c" opacity=".95"/>
      <text x="54" y="38" class="screenTitle">tracking.html — Status &amp; Tracking</text>
      <text x="18" y="70" class="screenSub">Timeline + map + booking details</text>
    </g>
    

<g transform="translate(120,1420)">
  <rect x="18" y="108" width="280" height="360" rx="20" fill="#141c28" stroke="#31415f"/>
  <text x="40" y="138" class="label">TIMELINE</text>
  <circle cx="46" cy="176" r="8" fill="#18c29c"/><rect x="64" y="168" width="212" height="12" rx="6" fill="#233149"/>
  <circle cx="46" cy="222" r="8" fill="#18c29c"/><rect x="64" y="214" width="190" height="12" rx="6" fill="#233149"/>
  <circle cx="46" cy="268" r="8" fill="#18c29c"/><rect x="64" y="260" width="222" height="12" rx="6" fill="#233149"/>
  <circle cx="46" cy="314" r="8" fill="#2d7cff"/><rect x="64" y="306" width="206" height="12" rx="6" fill="#2d7cff"/>
  <circle cx="46" cy="360" r="8" fill="#24324a"/><rect x="64" y="352" width="180" height="12" rx="6" fill="#233149"/>
  <rect x="316" y="108" width="414" height="220" rx="20" fill="#17202e" stroke="#31415f"/>
  <rect x="336" y="128" width="374" height="180" rx="16" fill="#253654"/>
  <circle cx="520" cy="218" r="18" fill="#2d7cff"/>
  <rect x="316" y="344" width="414" height="124" rx="20" fill="#141c28" stroke="#31415f"/>
  <rect x="336" y="364" width="180" height="16" rx="8" fill="#233149"/>
  <rect x="336" y="390" width="340" height="12" rx="6" fill="#253654"/>
  <rect x="336" y="416" width="300" height="12" rx="6" fill="#253654"/>
  <rect x="336" y="442" width="120" height="34" rx="12" fill="url(#greenGrad)"/>
  <rect x="468" y="442" width="120" height="34" rx="12" fill="#182233" stroke="#365076"/>
</g>


    <g transform="translate(980,1420)">
      <rect class="screen" x="0" y="0" width="760" height="560" rx="24"/>
      <rect x="18" y="18" width="724" height="32" rx="14" fill="#101621" stroke="#2f3e59"/>
      <circle cx="36" cy="34" r="6" fill="#2d7cff" opacity=".95"/>
      <text x="54" y="38" class="screenTitle">profil.html — Profil User</text>
      <text x="18" y="70" class="screenSub">Sidebar settings + history + payments</text>
    </g>
    

<g transform="translate(980,1420)">
  <rect x="18" y="108" width="180" height="360" rx="20" fill="#141c28" stroke="#31415f"/>
  <circle cx="108" cy="164" r="36" fill="#253654"/>
  <rect x="40" y="220" width="136" height="14" rx="7" fill="#2d7cff"/>
  <rect x="40" y="248" width="116" height="12" rx="6" fill="#233149"/>
  <rect x="40" y="274" width="104" height="12" rx="6" fill="#233149"/>
  <rect x="40" y="300" width="124" height="12" rx="6" fill="#233149"/>
  <rect x="40" y="326" width="98" height="12" rx="6" fill="#233149"/>
  <rect x="216" y="108" width="514" height="168" rx="20" fill="#17202e" stroke="#31415f"/>
  <rect x="236" y="128" width="210" height="16" rx="8" fill="#233149"/>
  <rect x="236" y="160" width="456" height="16" rx="8" fill="#253654"/>
  <rect x="236" y="190" width="412" height="16" rx="8" fill="#253654"/>
  <rect x="236" y="220" width="138" height="36" rx="12" fill="url(#blueGrad)"/>
  <rect x="216" y="292" width="250" height="176" rx="20" fill="#141c28" stroke="#31415f"/>
  <rect x="236" y="312" width="180" height="14" rx="7" fill="#233149"/>
  <rect x="236" y="340" width="206" height="14" rx="7" fill="#253654"/>
  <rect x="236" y="366" width="188" height="14" rx="7" fill="#253654"/>
  <rect x="236" y="392" width="176" height="14" rx="7" fill="#253654"/>
  <rect x="478" y="292" width="252" height="176" rx="20" fill="#141c28" stroke="#31415f"/>
  <rect x="498" y="312" width="212" height="14" rx="7" fill="#233149"/>
  <rect x="498" y="342" width="180" height="30" rx="12" fill="#17202e" stroke="#31415f"/>
  <rect x="498" y="382" width="180" height="30" rx="12" fill="#17202e" stroke="#31415f"/>
</g>

<path d="M 460 670 C 460.0 670, 460.0 780, 460 780" class="lineSoft"/>
<path d="M 1190 670 C 1190.0 670, 1190.0 780, 1190 780" class="lineSoft"/>
<path d="M 1880 670 C 1880.0 670, 1880.0 780, 1880 780" class="lineSoft"/>
<path d="M 800 420 C 825.0 420, 825.0 420, 850 420" class="line"/>
<path d="M 1530 420 C 1540.0 420, 1540.0 420, 1550 420" class="line"/>
<path d="M 505 670 C 502.5 670, 502.5 780, 500 780" class="lineSoft"/>
<path d="M 1230 670 C 1205.0 670, 1205.0 780, 1180 780" class="lineSoft"/>
<path d="M 500 1340 C 500.0 1340, 500.0 1420, 500 1420" class="lineSoft"/>
<path d="M 1180 1340 C 1180.0 1340, 1180.0 1420, 1180 1420" class="lineSoft"/>
<path d="M 600 1100 C 790.0 1100, 790.0 1100, 980 1100" class="lineSoft"/>
<path d="M 1360 1100 C 1360.0 1100, 1360.0 1420, 1360 1420" class="lineSoft"/>
<path d="M 1360 1700 C 1170.0 1700, 1170.0 1700, 980 1700" class="lineSoft"/>

  <g transform="translate(120, 2920)">
    <rect x="0" y="0" width="2160" height="120" rx="22" fill="#131a26" stroke="#2c3b57" filter="url(#softShadow)"/>
    <text x="28" y="34" class="label">FLOW</text>
    <rect x="28" y="48" width="18" height="18" rx="5" fill="#2d7cff"/><text x="56" y="62" class="small">Core pages</text>
    <rect x="180" y="48" width="18" height="18" rx="5" fill="#18c29c"/><text x="208" y="62" class="small">Transaction</text>
    <rect x="364" y="48" width="18" height="18" rx="5" fill="#f59e0b"/><text x="392" y="62" class="small">Checkout</text>
    <rect x="542" y="48" width="18" height="18" rx="5" fill="#2d7cff"/><text x="570" y="62" class="small">Account</text>
    <rect x="688" y="48" width="18" height="18" rx="5" fill="#ef4444"/><text x="716" y="62" class="small">Auth</text>
    <text x="1580" y="34" class="label">NOTES</text>
    <text x="1580" y="62" class="small">Optimized for desktop handoff; components remain modular and responsive.</text>
    <text x="1580" y="86" class="small">All screens use the same shared navbar, theme state, and localStorage flow.</text>
  </g>

</svg>